{"title":"The Skeleton Twins 2014 Movies WEB DL ESubs New +Sample ~ â˜»rDXâ˜»","uid":11618685,"size":742796626,"categoryP":"video","categoryS":"movies","magnet":"?xt=urn:btih:280821795d57a82e3ed5264bd3ffa6908536d6d3&amp;dn=The+Skeleton+Twins+2014+Movies+WEB+DL+ESubs+New+%2BSample+%7E+%E2%98%BBrDX%E2%98%BB&amp;tr=udp%3A%2F%2Ftracker.openbittorrent.com%3A80&amp;tr=udp%3A%2F%2Fopen.demonii.com%3A1337&amp;tr=udp%3A%2F%2Ftracker.coppersurfer.tk%3A6969&amp;tr=udp%3A%2F%2Fexodus.desync.com%3A6969","seeders":2,"leechers":0,"uploader":"basicssom","files":3,"time":1417480018,"description":"----------------------------------------------------------------\nThe Skeleton Twins 2014 English Movies WEB DL ESubs New Source with Sample ~ â˜»rDXâ˜»\n\nSCREEN SHOTS &amp; POSTER:\n &lt;a href=&quot;\nhttp://planethost.co.nr/12/TheSkeletonTwins/11.html&quot; rel=&quot;nofollow&quot; target=&quot;_NEW&quot;&gt;\nhttp://planethost.co.nr/12/TheSkeletonTwins/11.html&lt;/a&gt; &lt;a href=&quot;\nhttp://planethost.co.nr/12/TheSkeletonTwins/1.html&quot; rel=&quot;nofollow&quot; target=&quot;_NEW&quot;&gt;\nhttp://planethost.co.nr/12/TheSkeletonTwins/1.html&lt;/a&gt; &lt;a href=&quot;\nhttp://planethost.co.nr/12/TheSkeletonTwins/2.html&quot; rel=&quot;nofollow&quot; target=&quot;_NEW&quot;&gt;\nhttp://planethost.co.nr/12/TheSkeletonTwins/2.html&lt;/a&gt; &lt;a href=&quot;\nhttp://planethost.co.nr/12/TheSkeletonTwins/3.html&quot; rel=&quot;nofollow&quot; target=&quot;_NEW&quot;&gt;\nhttp://planethost.co.nr/12/TheSkeletonTwins/3.html&lt;/a&gt; &lt;a href=&quot;\nhttp://planethost.co.nr/12/TheSkeletonTwins/4.html&quot; rel=&quot;nofollow&quot; target=&quot;_NEW&quot;&gt;\nhttp://planethost.co.nr/12/TheSkeletonTwins/4.html&lt;/a&gt; &lt;a href=&quot;\nhttp://planethost.co.nr/12/TheSkeletonTwins/5.html&quot; rel=&quot;nofollow&quot; target=&quot;_NEW&quot;&gt;\nhttp://planethost.co.nr/12/TheSkeletonTwins/5.html&lt;/a&gt; &lt;a href=&quot;\nhttp://planethost.co.nr/12/TheSkeletonTwins/6.html&quot; rel=&quot;nofollow&quot; target=&quot;_NEW&quot;&gt;\nhttp://planethost.co.nr/12/TheSkeletonTwins/6.html&lt;/a&gt; &lt;a href=&quot;\nhttp://planethost.co.nr/12/TheSkeletonTwins/7.html&quot; rel=&quot;nofollow&quot; target=&quot;_NEW&quot;&gt;\nhttp://planethost.co.nr/12/TheSkeletonTwins/7.html&lt;/a&gt; &lt;a href=&quot;\nhttp://planethost.co.nr/12/TheSkeletonTwins/8.html&quot; rel=&quot;nofollow&quot; target=&quot;_NEW&quot;&gt;\nhttp://planethost.co.nr/12/TheSkeletonTwins/8.html&lt;/a&gt; &lt;a href=&quot;\nhttp://planethost.co.nr/12/TheSkeletonTwins/9.html&quot; rel=&quot;nofollow&quot; target=&quot;_NEW&quot;&gt;\nhttp://planethost.co.nr/12/TheSkeletonTwins/9.html&lt;/a&gt; &lt;a href=&quot;\nhttp://planethost.co.nr/12/TheSkeletonTwins/10.html&quot; rel=&quot;nofollow&quot; target=&quot;_NEW&quot;&gt;\nhttp://planethost.co.nr/12/TheSkeletonTwins/10.html&lt;/a&gt;\n\nFormat                                   : Matroska\nFormat version                           : Version 4 / Version 2\nFile size                                : 693 MiB\nDuration                                 : 1h 33mn\nOverall bit rate                         : 1 040 Kbps\nMovie name                               : The Skeleton Twins 2014 English Movies WEB DL New Source ~ rDX ~\n\nVideo\nID                                       : 1\nFormat                                   : MPEG-4 Visual\nFormat profile                           : Advanced Simple@L5\nFormat settings, BVOP                    : Yes\nFormat settings, QPel                    : No\nFormat settings, GMC                     : No warppoints\nFormat settings, Matrix                  : Default (H.263)\nCodec ID                                 : V_MS/VFW/FOURCC / XVID\nCodec ID/Hint                            : XviD\nDuration                                 : 1h 33mn\nBit rate                                 : 891 Kbps\nWidth                                    : 640 pixels\nHeight                                   : 272 pixels\nDisplay aspect ratio                     : 2.35:1\nFrame rate mode                          : Constant\nFrame rate                               : 23.976 fps\nColor space                              : YUV\nChroma subsampling                       : 4:2:0\nBit depth                                : 8 bits\nScan type                                : Progressive\nCompression mode                         : Lossy\nBits/(Pixel*Frame)                       : 0.214\nStream size                              : 594 MiB (86%)\nTitle                                    : ~ rDX ~\nWriting library                          : XviD 66\nDefault                                  : Yes\nForced                                   : No\n\nAudio\nID                                       : 2\nFormat                                   : MPEG Audio\nFormat version                           : Version 1\nFormat profile                           : Layer 3\nMode                                     : Joint stereo\nMode extension                           : MS Stereo\nCodec ID                                 : A_MPEG/L3\nCodec ID/Hint                            : MP3\nDuration                                 : 1h 33mn\nBit rate mode                            : Constant\nBit rate                                 : 128 Kbps\nChannel(s)                               : 2 channels\nSampling rate                            : 48.0 KHz\nCompression mode                         : Lossy\nStream size                              : 85.3 MiB (12%)\nTitle                                    : ~ rDX ~\nWriting library                          : LAME3.99r\nEncoding settings                        : -m j -V 4 -q 3 -lowpass 17 -b 128\nDefault                                  : Yes\nForced                                   : No","torrent":{"xt":"urn:btih:280821795d57a82e3ed5264bd3ffa6908536d6d3","amp;dn":"The+Skeleton+Twins+2014+Movies+WEB+DL+ESubs+New+%2BSample+%7E+%E2%98%BBrDX%E2%98%BB","amp;tr":["udp%3A%2F%2Ftracker.openbittorrent.com%3A80","udp%3A%2F%2Fopen.demonii.com%3A1337","udp%3A%2F%2Ftracker.coppersurfer.tk%3A6969","udp%3A%2F%2Fexodus.desync.com%3A6969"],"infoHash":"280821795d57a82e3ed5264bd3ffa6908536d6d3","infoHashBuffer":{"type":"Buffer","data":[40,8,33,121,93,87,168,46,62,213,38,75,211,255,166,144,133,54,214,211]},"announce":[],"urlList":[]}}